<mxfile host="65bd71144e">
    <diagram id="f3slu_0t_sN41W2EaQ5w" name="PÃ¡gina-1">
        <mxGraphModel dx="1142" dy="617" grid="1" gridSize="10" guides="1" tooltips="1" connect="1" arrows="1" fold="1" page="1" pageScale="1" pageWidth="827" pageHeight="1169" math="0" shadow="0">
            <root>
                <mxCell id="0"/>
                <mxCell id="1" parent="0"/>
                <mxCell id="116" style="edgeStyle=none;html=1;exitX=0;exitY=0;exitDx=0;exitDy=0;entryX=0.932;entryY=0.729;entryDx=0;entryDy=0;entryPerimeter=0;" parent="1" source="121" target="130" edge="1">
                    <mxGeometry relative="1" as="geometry">
                        <mxPoint x="320" y="590" as="targetPoint"/>
                    </mxGeometry>
                </mxCell>
                <mxCell id="117" style="edgeStyle=none;html=1;exitX=0;exitY=0.5;exitDx=0;exitDy=0;" parent="1" source="121" target="133" edge="1">
                    <mxGeometry relative="1" as="geometry">
                        <mxPoint x="320" y="635" as="targetPoint"/>
                    </mxGeometry>
                </mxCell>
                <mxCell id="118" style="edgeStyle=none;html=1;exitX=0;exitY=0.75;exitDx=0;exitDy=0;" parent="1" source="121" edge="1">
                    <mxGeometry relative="1" as="geometry">
                        <mxPoint x="310" y="690" as="targetPoint"/>
                    </mxGeometry>
                </mxCell>
                <mxCell id="119" style="edgeStyle=none;html=1;exitX=0;exitY=1;exitDx=0;exitDy=0;entryX=0.818;entryY=0.021;entryDx=0;entryDy=0;entryPerimeter=0;" parent="1" source="121" target="141" edge="1">
                    <mxGeometry relative="1" as="geometry">
                        <mxPoint x="339.9999999999998" y="740" as="targetPoint"/>
                    </mxGeometry>
                </mxCell>
                <mxCell id="120" style="edgeStyle=none;html=1;exitX=0.25;exitY=1;exitDx=0;exitDy=0;entryX=0.793;entryY=0.081;entryDx=0;entryDy=0;entryPerimeter=0;" parent="1" source="121" target="142" edge="1">
                    <mxGeometry relative="1" as="geometry">
                        <mxPoint x="369.9999999999998" y="780" as="targetPoint"/>
                    </mxGeometry>
                </mxCell>
                <mxCell id="121" value="Cliente" style="rounded=0;whiteSpace=wrap;html=1;" parent="1" vertex="1">
                    <mxGeometry x="380" y="630" width="120" height="60" as="geometry"/>
                </mxCell>
                <mxCell id="122" value="" style="endArrow=none;html=1;exitX=1;exitY=0.5;exitDx=0;exitDy=0;entryX=0;entryY=0.5;entryDx=0;entryDy=0;startArrow=none;" parent="1" source="128" target="127" edge="1">
                    <mxGeometry width="50" height="50" relative="1" as="geometry">
                        <mxPoint x="750" y="720" as="sourcePoint"/>
                        <mxPoint x="710" y="660" as="targetPoint"/>
                    </mxGeometry>
                </mxCell>
                <mxCell id="123" style="edgeStyle=none;html=1;exitX=1;exitY=0;exitDx=0;exitDy=0;entryX=0.5;entryY=1;entryDx=0;entryDy=0;" parent="1" source="127" target="136" edge="1">
                    <mxGeometry relative="1" as="geometry">
                        <mxPoint x="760" y="550" as="targetPoint"/>
                    </mxGeometry>
                </mxCell>
                <mxCell id="124" style="edgeStyle=none;html=1;exitX=0.995;exitY=0.117;exitDx=0;exitDy=0;exitPerimeter=0;entryX=0.032;entryY=0.797;entryDx=0;entryDy=0;entryPerimeter=0;" parent="1" source="127" target="131" edge="1">
                    <mxGeometry relative="1" as="geometry">
                        <mxPoint x="860" y="550" as="targetPoint"/>
                    </mxGeometry>
                </mxCell>
                <mxCell id="125" style="edgeStyle=none;html=1;exitX=1;exitY=0.25;exitDx=0;exitDy=0;entryX=0.085;entryY=0.801;entryDx=0;entryDy=0;entryPerimeter=0;" parent="1" source="127" target="137" edge="1">
                    <mxGeometry relative="1" as="geometry">
                        <mxPoint x="930" y="620" as="targetPoint"/>
                    </mxGeometry>
                </mxCell>
                <mxCell id="126" style="edgeStyle=none;html=1;exitX=1;exitY=0.5;exitDx=0;exitDy=0;entryX=0;entryY=0.5;entryDx=0;entryDy=0;" parent="1" source="127" target="143" edge="1">
                    <mxGeometry relative="1" as="geometry">
                        <mxPoint x="930" y="670" as="targetPoint"/>
                    </mxGeometry>
                </mxCell>
                <mxCell id="153" style="edgeStyle=none;html=1;exitX=1;exitY=0.75;exitDx=0;exitDy=0;" edge="1" parent="1" source="127" target="154">
                    <mxGeometry relative="1" as="geometry">
                        <mxPoint x="960" y="710" as="targetPoint"/>
                    </mxGeometry>
                </mxCell>
                <mxCell id="162" style="edgeStyle=none;html=1;exitX=1;exitY=0;exitDx=0;exitDy=0;entryX=0.005;entryY=0.677;entryDx=0;entryDy=0;entryPerimeter=0;" edge="1" parent="1" source="127" target="163">
                    <mxGeometry relative="1" as="geometry">
                        <mxPoint x="890" y="530" as="targetPoint"/>
                    </mxGeometry>
                </mxCell>
                <mxCell id="127" value="Paquetes" style="rounded=0;whiteSpace=wrap;html=1;" parent="1" vertex="1">
                    <mxGeometry x="750" y="630" width="120" height="60" as="geometry"/>
                </mxCell>
                <mxCell id="128" value="Deja" style="rhombus;whiteSpace=wrap;html=1;" parent="1" vertex="1">
                    <mxGeometry x="586.5" y="635" width="75" height="50" as="geometry"/>
                </mxCell>
                <mxCell id="129" value="" style="endArrow=none;html=1;exitX=1;exitY=0.5;exitDx=0;exitDy=0;entryX=0;entryY=0.5;entryDx=0;entryDy=0;" parent="1" source="121" target="128" edge="1">
                    <mxGeometry width="50" height="50" relative="1" as="geometry">
                        <mxPoint x="500" y="660" as="sourcePoint"/>
                        <mxPoint x="750" y="660" as="targetPoint"/>
                    </mxGeometry>
                </mxCell>
                <mxCell id="130" value="ID" style="ellipse;whiteSpace=wrap;html=1;" parent="1" vertex="1">
                    <mxGeometry x="210" y="540" width="120" height="50" as="geometry"/>
                </mxCell>
                <mxCell id="131" value="Destinatario" style="ellipse;whiteSpace=wrap;html=1;" parent="1" vertex="1">
                    <mxGeometry x="1060" y="560" width="120" height="50" as="geometry"/>
                </mxCell>
                <mxCell id="132" value="N" style="text;html=1;align=center;verticalAlign=middle;resizable=0;points=[];autosize=1;strokeColor=none;fillColor=none;" parent="1" vertex="1">
                    <mxGeometry x="500" y="640" width="20" height="20" as="geometry"/>
                </mxCell>
                <mxCell id="133" value="Nombre" style="ellipse;whiteSpace=wrap;html=1;" parent="1" vertex="1">
                    <mxGeometry x="190" y="610" width="120" height="50" as="geometry"/>
                </mxCell>
                <mxCell id="134" value="Apellido" style="ellipse;whiteSpace=wrap;html=1;" parent="1" vertex="1">
                    <mxGeometry x="200" y="675" width="120" height="50" as="geometry"/>
                </mxCell>
                <mxCell id="135" value="1" style="text;html=1;align=center;verticalAlign=middle;resizable=0;points=[];autosize=1;strokeColor=none;fillColor=none;" parent="1" vertex="1">
                    <mxGeometry x="730" y="640" width="20" height="20" as="geometry"/>
                </mxCell>
                <mxCell id="136" value="ID" style="ellipse;whiteSpace=wrap;html=1;" parent="1" vertex="1">
                    <mxGeometry x="1030" y="420" width="120" height="50" as="geometry"/>
                </mxCell>
                <mxCell id="137" value="FechaLlegada" style="ellipse;whiteSpace=wrap;html=1;" parent="1" vertex="1">
                    <mxGeometry x="1040" y="625" width="120" height="50" as="geometry"/>
                </mxCell>
                <mxCell id="141" value="telefono" style="ellipse;whiteSpace=wrap;html=1;" parent="1" vertex="1">
                    <mxGeometry x="210" y="740" width="120" height="50" as="geometry"/>
                </mxCell>
                <mxCell id="142" value="Correo" style="ellipse;whiteSpace=wrap;html=1;" parent="1" vertex="1">
                    <mxGeometry x="240" y="800" width="120" height="50" as="geometry"/>
                </mxCell>
                <mxCell id="143" value="NombreCliente" style="ellipse;whiteSpace=wrap;html=1;" parent="1" vertex="1">
                    <mxGeometry x="1000" y="675" width="120" height="50" as="geometry"/>
                </mxCell>
                <mxCell id="154" value="Estado" style="ellipse;whiteSpace=wrap;html=1;" vertex="1" parent="1">
                    <mxGeometry x="950" y="750" width="120" height="50" as="geometry"/>
                </mxCell>
                <mxCell id="156" value="" style="endArrow=none;html=1;exitX=0.5;exitY=1;exitDx=0;exitDy=0;startArrow=none;" edge="1" parent="1" source="157">
                    <mxGeometry width="50" height="50" relative="1" as="geometry">
                        <mxPoint x="860" y="760" as="sourcePoint"/>
                        <mxPoint x="810" y="910" as="targetPoint"/>
                    </mxGeometry>
                </mxCell>
                <mxCell id="157" value="" style="rhombus;whiteSpace=wrap;html=1;" vertex="1" parent="1">
                    <mxGeometry x="785" y="770" width="50" height="60" as="geometry"/>
                </mxCell>
                <mxCell id="158" value="" style="endArrow=none;html=1;exitX=0.5;exitY=1;exitDx=0;exitDy=0;" edge="1" parent="1" source="127" target="157">
                    <mxGeometry width="50" height="50" relative="1" as="geometry">
                        <mxPoint x="809.9999999999998" y="690" as="sourcePoint"/>
                        <mxPoint x="810.0000000000002" y="910" as="targetPoint"/>
                    </mxGeometry>
                </mxCell>
                <mxCell id="160" style="edgeStyle=none;html=1;exitX=1;exitY=0.5;exitDx=0;exitDy=0;entryX=0;entryY=1;entryDx=0;entryDy=0;" edge="1" parent="1" source="159" target="161">
                    <mxGeometry relative="1" as="geometry">
                        <mxPoint x="940.0000000000002" y="930" as="targetPoint"/>
                    </mxGeometry>
                </mxCell>
                <mxCell id="164" style="edgeStyle=none;html=1;exitX=1;exitY=1;exitDx=0;exitDy=0;" edge="1" parent="1" source="159">
                    <mxGeometry relative="1" as="geometry">
                        <mxPoint x="950" y="990" as="targetPoint"/>
                    </mxGeometry>
                </mxCell>
                <mxCell id="166" style="edgeStyle=none;html=1;exitX=0.5;exitY=1;exitDx=0;exitDy=0;entryX=0.253;entryY=0.011;entryDx=0;entryDy=0;entryPerimeter=0;" edge="1" parent="1" source="159" target="167">
                    <mxGeometry relative="1" as="geometry">
                        <mxPoint x="870" y="1050" as="targetPoint"/>
                    </mxGeometry>
                </mxCell>
                <mxCell id="159" value="Envios" style="rounded=0;whiteSpace=wrap;html=1;" vertex="1" parent="1">
                    <mxGeometry x="760" y="910" width="120" height="60" as="geometry"/>
                </mxCell>
                <mxCell id="161" value="ID" style="ellipse;whiteSpace=wrap;html=1;" vertex="1" parent="1">
                    <mxGeometry x="940" y="880" width="120" height="50" as="geometry"/>
                </mxCell>
                <mxCell id="163" value="NumeroPaquete" style="ellipse;whiteSpace=wrap;html=1;" vertex="1" parent="1">
                    <mxGeometry x="1050" y="500" width="120" height="50" as="geometry"/>
                </mxCell>
                <mxCell id="165" value="NumeroPaquete_Paquetes" style="ellipse;whiteSpace=wrap;html=1;" vertex="1" parent="1">
                    <mxGeometry x="950" y="970" width="160" height="60" as="geometry"/>
                </mxCell>
                <mxCell id="167" value="Departamento_ciudad" style="ellipse;whiteSpace=wrap;html=1;" vertex="1" parent="1">
                    <mxGeometry x="835" y="1060" width="160" height="60" as="geometry"/>
                </mxCell>
                <mxCell id="169" value="" style="endArrow=none;html=1;exitX=0.5;exitY=1;exitDx=0;exitDy=0;startArrow=none;" edge="1" parent="1" source="170">
                    <mxGeometry width="50" height="50" relative="1" as="geometry">
                        <mxPoint x="630" y="790" as="sourcePoint"/>
                        <mxPoint x="470" y="940" as="targetPoint"/>
                    </mxGeometry>
                </mxCell>
                <mxCell id="170" value="" style="rhombus;whiteSpace=wrap;html=1;rotation=90;" vertex="1" parent="1">
                    <mxGeometry x="599" y="910" width="50" height="60" as="geometry"/>
                </mxCell>
                <mxCell id="171" value="" style="endArrow=none;html=1;exitX=0;exitY=0.5;exitDx=0;exitDy=0;" edge="1" parent="1" source="159" target="170">
                    <mxGeometry width="50" height="50" relative="1" as="geometry">
                        <mxPoint x="760" y="940" as="sourcePoint"/>
                        <mxPoint x="470" y="940" as="targetPoint"/>
                    </mxGeometry>
                </mxCell>
                <mxCell id="173" style="edgeStyle=none;html=1;exitX=0.25;exitY=1;exitDx=0;exitDy=0;" edge="1" parent="1" source="172">
                    <mxGeometry relative="1" as="geometry">
                        <mxPoint x="320" y="1020" as="targetPoint"/>
                    </mxGeometry>
                </mxCell>
                <mxCell id="175" style="edgeStyle=none;html=1;exitX=0;exitY=0.5;exitDx=0;exitDy=0;" edge="1" parent="1" source="172" target="176">
                    <mxGeometry relative="1" as="geometry">
                        <mxPoint x="280" y="950" as="targetPoint"/>
                    </mxGeometry>
                </mxCell>
                <mxCell id="172" value="Ciudad" style="rounded=0;whiteSpace=wrap;html=1;" vertex="1" parent="1">
                    <mxGeometry x="354" y="910" width="120" height="60" as="geometry"/>
                </mxCell>
                <mxCell id="174" value="Departamento&amp;nbsp;" style="ellipse;whiteSpace=wrap;html=1;" vertex="1" parent="1">
                    <mxGeometry x="210" y="1020" width="160" height="60" as="geometry"/>
                </mxCell>
                <mxCell id="176" value="ID" style="ellipse;whiteSpace=wrap;html=1;" vertex="1" parent="1">
                    <mxGeometry x="130" y="920" width="160" height="60" as="geometry"/>
                </mxCell>
                <mxCell id="179" value="" style="endArrow=none;html=1;entryX=0.5;entryY=0;entryDx=0;entryDy=0;startArrow=none;" edge="1" parent="1" target="127">
                    <mxGeometry width="50" height="50" relative="1" as="geometry">
                        <mxPoint x="810" y="340" as="sourcePoint"/>
                        <mxPoint x="760" y="670" as="targetPoint"/>
                    </mxGeometry>
                </mxCell>
                <mxCell id="180" value="" style="rhombus;whiteSpace=wrap;html=1;rotation=90;" vertex="1" parent="1">
                    <mxGeometry x="774.5" y="480" width="71" height="60" as="geometry"/>
                </mxCell>
            </root>
        </mxGraphModel>
    </diagram>
</mxfile>